<svg width="1858" height="824" viewBox="0 0 1858 824" fill="none" xmlns="http://www.w3.org/2000/svg">
<line opacity="0.1" y1="-1" x2="930.376" y2="-1" transform="matrix(-0.464328 0.885663 0.885663 0.464328 1858 0)" stroke="#BBBBBB" stroke-width="2"/>
<line opacity="0.1" y1="-1" x2="930.376" y2="-1" transform="matrix(-0.464328 0.885663 0.885663 0.464328 1654.29 0)" stroke="#BBBBBB" stroke-width="2"/>
<line opacity="0.1" y1="-1" x2="930.376" y2="-1" transform="matrix(-0.464328 0.885663 0.885663 0.464328 1450.57 0)" stroke="#BBBBBB" stroke-width="2"/>
<line opacity="0.1" y1="-1" x2="930.376" y2="-1" transform="matrix(-0.464328 0.885663 0.885663 0.464328 1246.86 0)" stroke="#BBBBBB" stroke-width="2"/>
<line opacity="0.1" y1="-1" x2="930.376" y2="-1" transform="matrix(-0.464328 0.885663 0.885663 0.464328 1043.14 0)" stroke="#BBBBBB" stroke-width="2"/>
<line opacity="0.1" y1="-1" x2="930.376" y2="-1" transform="matrix(-0.464328 0.885663 0.885663 0.464328 839.429 0)" stroke="#BBBBBB" stroke-width="2"/>
<line opacity="0.1" y1="-1" x2="930.376" y2="-1" transform="matrix(-0.464328 0.885663 0.885663 0.464328 635.714 0)" stroke="#BBBBBB" stroke-width="2"/>
<line opacity="0.1" y1="-1" x2="930.376" y2="-1" transform="matrix(-0.464328 0.885663 0.885663 0.464328 432 0)" stroke="#BBBBBB" stroke-width="2"/>
</svg>
