<svg width="40" height="40" viewBox="0 0 40 40" fill="none" xmlns="http://www.w3.org/2000/svg">
<g clip-path="url(#clip0_45_672)">
<path d="M30 40H10C4.5 40 0 35.5 0 30V10C0 4.5 4.5 0 10 0H30C35.5 0 40 4.5 40 10V30C40 35.5 35.5 40 30 40Z" fill="#7A5FFF"/>
<path d="M28.4854 23.3075L26.6734 21.484V16.9862C26.6734 13.5825 24.2575 10.5434 20.8752 10.0571C17.2513 9.57089 13.8689 12.2453 13.3857 15.8922C13.3857 16.1353 13.2649 16.5 13.2649 16.7431V21.484L11.453 23.3075C10.849 23.9153 10.849 25.0094 11.453 25.6172C11.8154 25.8603 12.2986 25.9819 12.661 25.9819H16.0433V26.225C16.1641 28.2916 17.976 29.9934 20.0296 29.9934C22.0831 30.115 23.8951 28.5347 24.0159 26.225V26.1034H27.3982C28.2438 26.1034 28.9686 25.3741 28.9686 24.5231C29.0894 23.9153 28.8478 23.5506 28.4854 23.3075ZM22.0831 26.3466C21.9623 27.3191 21.1168 28.0484 20.0296 28.0484C19.0632 28.17 18.0968 27.3191 17.976 26.3466V26.1034H21.9623V26.3466H22.0831Z" fill="white"/>
</g>
<defs>
<clipPath id="clip0_45_672">
<rect width="40" height="40" fill="white"/>
</clipPath>
</defs>
</svg>
