<svg width="296" height="364" viewBox="0 0 296 364" fill="none" xmlns="http://www.w3.org/2000/svg">
<path opacity="0.06" d="M108.5 248.5V311C108.5 328.333 103.833 341.5 94.5 350.5C85.5 359.5 73.5 364 58.5 364H58C41.6667 364 28.6667 359.5 19 350.5C9.66667 341.5 5 328.333 5 311V240.5C5 205.167 10.3333 178.333 21 160C31.6667 141.667 45.1667 128.5 61.5 120.5L59 111H50.5C35.1667 111 23 106.167 14 96.5C5.33333 86.5 0.833334 73 0.500001 56C0.166668 39.3333 4.5 25.8333 13.5 15.5C22.8333 5.16665 35.1667 -2.24113e-05 50.5 -2.24113e-05H182C215.667 -2.24113e-05 243 10.1666 264 30.5C285.333 50.5 296 82.1666 296 125.5C296 156.833 290.5 181.5 279.5 199.5C268.5 217.5 254 230.167 236 237.5C218 244.833 198.5 248.5 177.5 248.5H108.5ZM102 152C102 159.333 103.333 164.167 106 166.5C109 168.833 114.167 170 121.5 170H168C182 170 192.167 166.833 198.5 160.5C204.833 153.833 208 144.5 208 132.5C208 120.5 204.833 111.333 198.5 105C192.167 98.6667 182 95.5 168 95.5H121.5C114.167 95.5 109 96.5 106 98.5C103.333 100.5 102 105.333 102 113V152Z" fill="white"/>
</svg>
