<svg width="36" height="44" viewBox="0 0 36 44" fill="none" xmlns="http://www.w3.org/2000/svg">
<path d="M13.34 30.14V37.64C13.34 39.72 12.78 41.3 11.66 42.38C10.58 43.46 9.14 44 7.34 44H7.28C5.32 44 3.76 43.46 2.6 42.38C1.48 41.3 0.92 39.72 0.92 37.64V29.18C0.92 24.94 1.56 21.72 2.84 19.52C4.12 17.32 5.74 15.74 7.7 14.78L7.4 13.64H6.38C4.54 13.64 3.08 13.06 2 11.9C0.96 10.7 0.42 9.08 0.38 7.04C0.34 5.04 0.86 3.42 1.94 2.18C3.06 0.939998 4.54 0.319997 6.38 0.319997H22.16C26.2 0.319997 29.48 1.54 32 3.98C34.56 6.38 35.84 10.18 35.84 15.38C35.84 19.14 35.18 22.1 33.86 24.26C32.54 26.42 30.8 27.94 28.64 28.82C26.48 29.7 24.14 30.14 21.62 30.14H13.34ZM12.56 18.56C12.56 19.44 12.72 20.02 13.04 20.3C13.4 20.58 14.02 20.72 14.9 20.72H20.48C22.16 20.72 23.38 20.34 24.14 19.58C24.9 18.78 25.28 17.66 25.28 16.22C25.28 14.78 24.9 13.68 24.14 12.92C23.38 12.16 22.16 11.78 20.48 11.78H14.9C14.02 11.78 13.4 11.9 13.04 12.14C12.72 12.38 12.56 12.96 12.56 13.88V18.56Z" fill="#7A5FFF"/>
</svg>
